<svg style="display:none">
	<symbol id="Logo" viewBox="0 0 198 56" fill="none" xmlns="http://www.w3.org/2000/svg"><path d="M40.4812 0C37.5149 0 32.1058 2.99241 28.267 5.63278C26.1732 7.04098 25.4752 8.09711 25.4752 8.97723C25.4752 9.50531 25.6497 10.0334 26.1732 10.9135C26.8711 11.9697 27.3946 12.4977 28.0925 12.4977C28.616 12.4977 28.965 12.1457 30.0119 11.2656C32.6292 8.80122 34.5486 7.217 36.2935 5.63278C36.817 5.10471 37.3404 4.75266 37.6894 4.75266C37.8639 4.75266 38.0384 4.92868 38.0384 5.1047C38.0384 5.28072 38.0384 5.45675 37.8639 5.63278C35.9445 10.9135 34.0251 16.8983 31.2333 22.3551C16.4018 23.2352 0 30.2762 0 39.7816C0 45.9424 4.88566 47.7027 9.59683 47.7027C23.0324 47.7027 31.4078 36.7891 37.5149 23.2352C40.4812 16.1943 43.9709 7.74506 43.9709 4.04854C43.7965 2.2883 43.9709 0 40.4812 0ZM135.752 13.0258C136.275 13.3779 136.973 13.7299 137.671 13.7299C139.416 13.7299 141.51 10.7375 141.51 7.9211C141.51 6.86496 140.812 6.33687 139.765 6.33687C137.322 6.33687 134.181 7.9211 134.181 10.5615C134.356 11.6176 134.879 12.3217 135.752 13.0258ZM179.897 13.3778C180.595 13.7299 181.293 13.9059 181.991 13.9059C182.863 13.9059 183.736 13.5539 183.91 12.6738C184.259 11.7936 184.434 10.9135 184.434 10.2094C184.434 7.92108 183.038 6.33687 180.944 6.33687C180.071 6.33687 179.199 6.68893 178.675 7.39302C177.978 8.27315 177.629 8.97723 177.629 9.85736C177.629 11.2656 178.675 12.6737 179.897 13.3778ZM197.869 29.2201C197.695 28.868 197.52 28.692 196.997 28.692C196.648 28.692 196.473 28.692 195.95 29.044C191.762 30.6283 190.192 31.5084 187.225 31.5084C184.434 31.5084 184.608 30.1002 183.91 26.4037L182.689 20.7709C182.514 20.0668 182.34 19.5387 181.642 19.1867C181.293 19.0106 180.246 18.8346 179.548 18.8346C177.803 18.8346 177.28 19.8907 176.407 20.7709C172.394 26.2276 165.938 31.8604 162.274 31.8604C160.354 31.8604 159.831 30.2762 159.831 27.9879C159.831 27.4598 159.831 26.9317 159.831 26.2276C160.18 23.4113 160.703 21.651 161.925 18.4826C162.623 18.4826 163.495 18.4826 164.019 18.4826C165.589 18.4826 166.287 18.1305 166.81 17.4264C167.334 16.7223 167.683 14.9621 167.683 13.5539C167.683 12.6738 167.159 12.3217 166.461 12.3217C165.763 12.3217 164.542 12.4977 163.844 12.6738C164.367 10.7375 164.542 9.32929 164.542 8.62519C164.542 7.56904 163.844 7.39302 162.797 7.39302C158.435 7.39302 158.784 8.6252 158.086 12.6738L157.911 13.3778C154.771 13.7299 151.455 14.0819 148.489 14.258C147.791 14.258 147.093 14.434 146.57 14.786C146.046 15.1381 145.697 16.3703 145.697 17.0744C145.697 18.1305 146.57 18.1305 148.315 18.1305H156.167C153.026 23.2352 148.14 30.2762 143.603 30.2762C140.288 30.2762 140.114 26.4037 138.718 19.8907C138.369 18.3065 137.845 17.6025 135.752 17.6025C134.53 17.6025 133.832 18.1305 133.309 19.1867C131.564 21.827 127.551 29.044 125.631 30.4522C125.108 30.8043 124.584 31.1563 123.886 31.1563C122.665 31.1563 122.141 29.2201 122.141 25.5236C122.141 22.7072 122.49 21.1229 122.49 19.0106C122.49 17.6024 121.792 17.6024 120.222 17.7785C118.826 17.7785 117.954 18.4826 117.081 19.7147C115.86 21.1229 114.638 23.4113 112.37 26.2276C110.625 28.516 108.182 30.9803 105.74 30.9803C103.995 30.9803 103.471 30.1002 103.471 28.1639C103.471 25.1715 107.31 18.6586 107.31 16.7223C107.31 16.0182 106.961 15.8422 105.391 15.8422C103.471 15.8422 102.599 15.8422 101.901 16.3703C101.028 16.8983 100.679 17.9545 99.6325 20.2428C98.5856 22.8832 97.0152 28.1639 97.0152 31.1563C97.1897 35.3809 100.156 36.6131 102.948 36.6131C107.31 36.6131 111.323 33.9727 114.813 27.8119C115.162 27.2838 115.162 27.1078 115.511 27.1078C115.685 27.1078 115.86 27.2838 115.86 27.8119V29.5721C115.86 33.4446 118.303 35.3809 121.269 35.3809C124.759 35.3809 127.376 32.7406 132.785 24.8195C133.134 24.4674 133.134 24.2914 133.483 24.2914C133.658 24.2914 133.832 24.4674 133.832 24.8195C135.403 31.3324 136.798 34.5008 141.859 34.5008C146.919 34.5008 150.583 30.4522 154.247 25.5236C153.898 27.1078 153.898 28.516 153.898 29.7481C153.898 33.7967 155.469 36.261 158.784 36.437C163.321 36.6131 167.508 33.6207 171.347 30.4522C174.837 27.6358 175.36 26.5797 177.105 24.9954C177.454 24.6434 177.629 24.4674 177.978 24.4674C178.327 24.4674 178.327 24.8194 178.327 24.9954L179.548 30.6283C179.897 32.3885 180.42 33.7967 181.118 34.8528C181.816 35.909 183.561 36.437 185.481 36.437C188.97 36.437 192.46 33.9727 196.648 30.9803C197.52 30.2762 197.869 30.1002 197.869 29.7481C198.044 29.5721 198.044 29.3961 197.869 29.2201ZM91.7806 20.7709C90.5592 20.7709 88.9888 21.299 87.2439 23.0592C82.1837 27.8119 79.2175 29.9242 75.9022 29.9242C73.8083 29.9242 72.4124 28.868 72.4124 26.9317C72.4124 22.3551 77.9961 18.1305 84.1031 18.1305C85.848 18.1305 86.8949 18.4826 87.7674 18.6586C88.4653 18.8346 88.9888 19.1867 89.5123 19.1867C90.3847 19.1867 91.0826 18.4826 91.6061 16.8983C91.7806 16.5463 91.9551 15.8422 91.9551 15.4901C91.9551 14.258 90.9082 12.8498 85.1501 13.0258C76.9491 13.0258 71.54 19.0106 66.8289 24.1154C62.2922 29.044 57.232 32.3885 52.6953 32.7406C50.2525 32.9166 48.6821 32.0365 48.1586 29.044C55.8361 26.7557 62.1177 23.5873 62.1177 19.0106C62.1177 16.3703 60.3728 14.258 56.7085 14.258C50.9504 14.258 41.8771 22.003 41.8771 29.3961C41.8771 34.3247 44.8434 37.1412 49.729 37.1412C54.9637 37.1412 60.8962 33.6207 67.0033 27.9879C67.0033 32.2125 68.9227 34.8528 72.9359 34.8528C76.7747 34.8528 79.7409 32.7405 83.2307 29.3961C83.7542 28.868 84.1031 28.5159 84.4521 28.5159C84.6266 28.5159 84.8011 28.516 84.8011 28.868C84.8011 29.2201 84.6266 29.5721 84.2776 30.1002C83.9287 30.8043 75.5532 47.5266 74.5063 49.8149C73.9828 50.8711 73.8084 51.7512 73.8084 52.4553C73.8084 53.6875 74.3318 54.2156 75.3787 54.7436C75.7277 54.9197 76.2512 55.0957 76.9491 55.0957C77.2981 55.0957 77.6471 54.9197 78.1706 54.7436C79.2175 54.0395 80.4389 52.1032 82.0093 49.1108C85.3245 42.4219 90.7336 29.9242 92.4785 26.2276C92.8275 25.3475 94.2234 22.7071 94.2234 21.651C93.5255 21.1229 92.653 20.7709 91.7806 20.7709ZM55.3126 19.0106C56.883 19.0106 57.232 19.5387 57.232 20.5949C57.232 22.5311 53.5677 25.1715 47.8096 27.1078C47.8096 23.4113 51.4739 19.1867 55.3126 19.0106ZM16.0529 42.5979C14.4825 43.302 12.7376 43.8301 11.5162 43.8301C8.89889 43.8301 6.97951 42.4219 6.97951 38.9014C6.97951 30.9803 18.8447 26.5797 29.8374 25.5236C25.1263 34.5008 21.462 39.9575 16.0529 42.5979Z" fill="#7A206C"/></symbol>
	<symbol id="ChevronLeft" xmlns="http://www.w3.org/2000/svg" fill="none" viewBox="0 0 24 24" stroke="currentColor"><path stroke-linecap="round" stroke-linejoin="round" d="M15.75 19.5L8.25 12l7.5-7.5" /></symbol>
	<symbol id="ChevronRight" xmlns="http://www.w3.org/2000/svg" fill="none" viewBox="0 0 24 24" stroke="currentColor"><path stroke-linecap="round" stroke-linejoin="round" d="M8.25 4.5l7.5 7.5-7.5 7.5" /></symbol>
	<symbol id="ChevronUp" xmlns="http://www.w3.org/2000/svg" fill="none" viewBox="0 0 24 24" stroke="currentColor"><path stroke-linecap="round" stroke-linejoin="round" d="M4.5 15.75l7.5-7.5 7.5 7.5" /></symbol>	
	<symbol id="ChevronDown" xmlns="http://www.w3.org/2000/svg" fill="none" viewBox="0 0 24 24" stroke="currentColor"><path stroke-linecap="round" stroke-linejoin="round" d="M19.5 8.25l-7.5 7.5-7.5-7.5" /></symbol>
	<symbol id="QuestionMarkCircle" xmlns="http://www.w3.org/2000/svg" fill="none" viewBox="0 0 24 24" stroke="currentColor"><path stroke-linecap="round" stroke-linejoin="round" d="M9.879 7.519c1.171-1.025 3.071-1.025 4.242 0 1.172 1.025 1.172 2.687 0 3.712-.203.179-.43.326-.67.442-.745.361-1.45.999-1.45 1.827v.75M21 12a9 9 0 11-18 0 9 9 0 0118 0zm-9 5.25h.008v.008H12v-.008z" /></symbol>
	<symbol id="User" fill="none" xmlns="http://www.w3.org/2000/svg" viewBox="1.13 1.12 19.75 23.76"><path d="M20.625 24.1146C20.625 24.4001 20.3715 24.6316 20.0588 24.6316C19.7461 24.6316 19.4926 24.4001 19.4926 24.1146C19.4926 19.832 15.6904 16.3602 11 16.3602C6.30964 16.3602 2.50735 19.832 2.50735 24.1146C2.50735 24.4001 2.25387 24.6316 1.94118 24.6316C1.62849 24.6316 1.375 24.4001 1.375 24.1146C1.375 19.261 5.68426 15.3263 11 15.3263C16.3157 15.3263 20.625 19.261 20.625 24.1146ZM10.8952 13C7.82956 13 5.3444 10.3962 5.3444 7.1842C5.3444 3.97223 7.82956 1.36841 10.8952 1.36841C13.9607 1.36841 16.4459 3.97223 16.4459 7.1842C16.4459 10.3962 13.9607 13 10.8952 13ZM10.8952 11.8368C13.3476 11.8368 15.3358 9.75378 15.3358 7.1842C15.3358 4.61462 13.3476 2.53157 10.8952 2.53157C8.44268 2.53157 6.45455 4.61462 6.45455 7.1842C6.45455 9.75378 8.44268 11.8368 10.8952 11.8368Z" fill="currentColor" stroke="currentColor" stroke-width="0.5" stroke-linejoin="round"></path></symbol>
	<symbol id="Cash" width="24" height="24" viewBox="0 0 24 24" fill="none" xmlns="http://www.w3.org/2000/svg">
  <path d="M12.85 5V5.15H13H15C15.7559 5.15 16.4808 5.45027 17.0153 5.98475C17.5497 6.51922 17.85 7.24413 17.85 8C17.85 8.22543 17.7604 8.44164 17.601 8.60104C17.4416 8.76045 17.2254 8.85 17 8.85C16.7746 8.85 16.5584 8.76045 16.399 8.60104C16.2396 8.44164 16.15 8.22543 16.15 8C16.15 7.695 16.0288 7.40249 15.8132 7.18683C15.5975 6.97116 15.305 6.85 15 6.85H10C9.42978 6.85 8.88292 7.07652 8.47972 7.47972C8.07652 7.88292 7.85 8.42978 7.85 9C7.85 9.57022 8.07652 10.1171 8.47972 10.5203C8.88292 10.9235 9.42978 11.15 10 11.15H14C15.0211 11.15 16.0003 11.5556 16.7224 12.2776C17.4444 12.9997 17.85 13.9789 17.85 15C17.85 16.0211 17.4444 17.0003 16.7224 17.7224C16.0003 18.4444 15.0211 18.85 14 18.85H13H12.85V19V21C12.85 21.2254 12.7604 21.4416 12.601 21.601C12.4416 21.7604 12.2254 21.85 12 21.85C11.7746 21.85 11.5584 21.7604 11.399 21.601C11.2396 21.4416 11.15 21.2254 11.15 21V19V18.85H11H9C8.24413 18.85 7.51922 18.5497 6.98475 18.0153C6.45027 17.4808 6.15 16.7559 6.15 16C6.15 15.7746 6.23955 15.5584 6.39896 15.399C6.55837 15.2396 6.77457 15.15 7 15.15C7.22543 15.15 7.44163 15.2396 7.60104 15.399C7.76045 15.5584 7.85 15.7746 7.85 16C7.85 16.305 7.97116 16.5975 8.18683 16.8132C8.40249 17.0288 8.695 17.15 9 17.15H14C14.5702 17.15 15.1171 16.9235 15.5203 16.5203C15.9235 16.1171 16.15 15.5702 16.15 15C16.15 14.4298 15.9235 13.8829 15.5203 13.4797C15.1171 13.0765 14.5702 12.85 14 12.85H10C8.97892 12.85 7.99965 12.4444 7.27764 11.7224C6.55562 11.0003 6.15 10.0211 6.15 9C6.15 7.97892 6.55562 6.99965 7.27764 6.27764C7.99965 5.55562 8.97892 5.15 10 5.15H11H11.15V5V3C11.15 2.77457 11.2396 2.55837 11.399 2.39896C11.5584 2.23955 11.7746 2.15 12 2.15C12.2254 2.15 12.4416 2.23955 12.601 2.39896C12.7604 2.55837 12.85 2.77457 12.85 3V5Z" fill="currentColor" stroke="white" stroke-width="0.3"/>
</symbol>

	<symbol id="Catalog" viewBox="0 0 32 32" fill="none" xmlns="http://www.w3.org/2000/svg">
<path d="M22.2591 4H9.40933C8.7706 4.00072 8.15804 4.25474 7.70651 4.70651C7.25476 5.15807 7.00073 5.77065 7 6.40933V11.551C7 11.6987 7.11993 11.8186 7.26764 11.8186C7.41554 11.8186 7.53546 11.6987 7.53546 11.551V6.40933C7.53672 5.95991 7.69967 5.52591 7.99457 5.1869C8.28964 4.84774 8.69676 4.62615 9.14168 4.56254V23.3016C8.50961 23.3721 7.93165 23.691 7.53546 24.1882V9.62168C7.53546 9.47378 7.41553 9.35403 7.26764 9.35403C7.11992 9.35403 7 9.47378 7 9.62168V25.6839C7.00072 26.3226 7.25474 26.9352 7.70651 27.3867C8.15808 27.8384 8.77065 28.0925 9.40933 28.0932H20.8341C20.982 28.0932 21.1018 27.9733 21.1018 27.8256C21.1018 27.6777 20.982 27.5577 20.8341 27.5577H9.40933C8.73976 27.5577 8.12114 27.2006 7.78645 26.6209C7.45176 26.041 7.45176 25.3268 7.78645 24.7469C8.12114 24.1671 8.73976 23.81 9.40933 23.81H24.1329V26.7546C24.1327 26.9676 24.0481 27.1718 23.8975 27.3224C23.7469 27.4729 23.5427 27.5576 23.3297 27.5577H16.9049C16.7572 27.5577 16.6372 27.6777 16.6372 27.8256C16.6372 27.9733 16.7572 28.0932 16.9049 28.0932H23.3297C23.6847 28.0928 24.0249 27.9518 24.2759 27.7008C24.5269 27.4498 24.668 27.1096 24.6683 26.7546V6.40933C24.6676 5.77061 24.4136 5.15804 23.9618 4.70651C23.5102 4.25476 22.8978 4.00073 22.2591 4ZM9.67688 23.2746V4.53556H22.2591C22.7558 4.5361 23.2321 4.73383 23.5835 5.08502C23.9347 5.43638 24.1324 5.91269 24.1329 6.40942V23.2747L9.67688 23.2746Z" fill="currentColor" stroke="currentColor" stroke-width="0.5"/>
<path d="M22.5264 25.6837C22.5264 25.6127 22.4982 25.5445 22.4481 25.4944C22.3979 25.4442 22.3297 25.416 22.2588 25.416H9.409C9.2611 25.416 9.14136 25.5358 9.14136 25.6837C9.14136 25.8315 9.26111 25.9513 9.409 25.9513H22.2588C22.3297 25.9513 22.3979 25.9232 22.4481 25.873C22.4983 25.8228 22.5264 25.7546 22.5264 25.6837Z" fill="currentColor" stroke="currentColor" stroke-width="0.5"/>
<path d="M18.7788 11.5276V10.6931C18.7785 10.3384 18.6374 9.99795 18.3864 9.74715C18.1355 9.49618 17.7952 9.35492 17.4403 9.35474H16.3695C16.0146 9.35492 15.6744 9.49618 15.4234 9.74715C15.1724 9.99794 15.0313 10.3384 15.031 10.6931V11.5276C14.7203 11.5626 14.4318 11.7058 14.2162 11.9322C14.0004 12.1586 13.8713 12.4537 13.8514 12.7658C13.7546 14.4495 14.0627 16.1321 14.7497 17.6721C14.8558 17.9068 15.0277 18.1058 15.2444 18.2448C15.4612 18.3839 15.7134 18.4575 15.971 18.4564H17.8388C18.0962 18.4575 18.3484 18.384 18.5651 18.245C18.7819 18.1059 18.9538 17.9071 19.0601 17.6726C19.4371 16.826 19.7015 15.9335 19.8465 15.018C19.8697 14.8719 19.7698 14.7348 19.6237 14.7117C19.4776 14.6886 19.3405 14.7882 19.3173 14.9343C19.1804 15.8036 18.9292 16.651 18.5707 17.4546C18.5067 17.5946 18.4036 17.7133 18.2736 17.7961C18.1438 17.8788 17.9927 17.9221 17.8387 17.9209H15.971C15.8168 17.9221 15.6657 17.8788 15.5359 17.7959C15.4059 17.7129 15.3028 17.5943 15.239 17.4541C14.587 15.9916 14.2945 14.3946 14.3857 12.796C14.3972 12.5899 14.4868 12.3961 14.6365 12.254C14.7862 12.1118 14.9845 12.0324 15.1908 12.0317H18.6187C18.825 12.0324 19.0235 12.1118 19.1732 12.254C19.3227 12.3961 19.4125 12.5899 19.4239 12.796C19.4444 13.1609 19.336 14.5695 19.3173 14.9343C19.3094 15.0819 19.4227 15.2077 19.5703 15.2156C19.6418 15.2222 19.7128 15.1986 19.7662 15.1505C19.8196 15.1025 19.8505 15.0344 19.8515 14.9626C19.8718 14.5781 19.9804 13.1499 19.9583 12.7656C19.9384 12.4537 19.8092 12.1584 19.5935 11.932C19.3779 11.7058 19.0895 11.5626 18.7788 11.5276ZM16.3695 9.89001H17.4403C17.6532 9.89037 17.8574 9.97498 18.0078 10.1256C18.1584 10.2761 18.2432 10.4803 18.2434 10.6931V11.4962H15.5664V10.6931C15.5666 10.4803 15.6512 10.2761 15.8018 10.1256C15.9524 9.97499 16.1566 9.89037 16.3695 9.89001Z" fill="currentColor"/>
<path d="M19.3173 14.9343C19.3405 14.7882 19.4776 14.6886 19.6237 14.7117C19.7698 14.7348 19.8697 14.8719 19.8465 15.018C19.7015 15.9335 19.4371 16.826 19.0601 17.6726C18.9538 17.9071 18.7819 18.1059 18.5651 18.245C18.3484 18.384 18.0962 18.4575 17.8388 18.4564H15.971C15.7134 18.4575 15.4612 18.3839 15.2444 18.2448C15.0277 18.1058 14.8558 17.9068 14.7497 17.6721C14.0627 16.1321 13.7546 14.4495 13.8514 12.7658C13.8713 12.4537 14.0004 12.1586 14.2162 11.9322C14.4318 11.7058 14.7203 11.5626 15.031 11.5276V10.6931C15.0313 10.3384 15.1724 9.99794 15.4234 9.74715C15.6744 9.49618 16.0146 9.35492 16.3695 9.35474H17.4403C17.7952 9.35492 18.1355 9.49618 18.3864 9.74715C18.6374 9.99795 18.7785 10.3384 18.7788 10.6931V11.5276C19.0895 11.5626 19.3779 11.7058 19.5935 11.932C19.8092 12.1584 19.9384 12.4537 19.9583 12.7656C19.9804 13.1499 19.8718 14.5781 19.8515 14.9626C19.8505 15.0344 19.8196 15.1025 19.7662 15.1505C19.7128 15.1986 19.6418 15.2222 19.5703 15.2156C19.4227 15.2077 19.3094 15.0819 19.3173 14.9343ZM19.3173 14.9343C19.1804 15.8036 18.9292 16.651 18.5707 17.4546C18.5067 17.5946 18.4036 17.7133 18.2736 17.7961C18.1438 17.8788 17.9927 17.9221 17.8387 17.9209H15.971C15.8168 17.9221 15.6657 17.8788 15.5359 17.7959C15.4059 17.7129 15.3028 17.5943 15.239 17.4541C14.587 15.9916 14.2945 14.3946 14.3857 12.796C14.3972 12.5899 14.4868 12.3961 14.6365 12.254C14.7862 12.1118 14.9845 12.0324 15.1908 12.0317H18.6187C18.825 12.0324 19.0235 12.1118 19.1732 12.254C19.3227 12.3961 19.4125 12.5899 19.4239 12.796C19.4444 13.1609 19.336 14.5695 19.3173 14.9343ZM16.3695 9.89001H17.4403C17.6532 9.89037 17.8574 9.97498 18.0078 10.1256C18.1584 10.2761 18.2432 10.4803 18.2434 10.6931V11.4962H15.5664V10.6931C15.5666 10.4803 15.6512 10.2761 15.8018 10.1256C15.9524 9.97499 16.1566 9.89037 16.3695 9.89001Z" stroke="currentColor" stroke-width="0.5"/>
</symbol>

	<symbol id="ShoppingCart" fill="none" xmlns="http://www.w3.org/2000/svg" viewBox="0.21 0.9 14.45 18.2"><path d="M7.42427 1C5.33333 1 3.6322 2.73721 3.6322 4.87249V5.76959H0.718633C0.60325 5.76959 0.49331 5.81969 0.416307 5.90741C0.339263 5.99512 0.302386 6.11217 0.314895 6.22929C0.321962 6.29548 1.02591 12.8866 1.4048 16.4137C1.56319 17.8881 2.7781 19 4.23076 19H10.6419C12.0948 19 13.3097 17.8878 13.4679 16.4129L14.5601 6.2295C14.5727 6.11233 14.5358 5.99525 14.4588 5.90749C14.3817 5.81973 14.2718 5.76959 14.1564 5.76959H11.2167V4.87249C11.2167 2.73721 9.51565 1 7.42427 1ZM4.44446 4.87249C4.44446 3.19459 5.78121 1.82949 7.42467 1.82949C9.06773 1.82949 10.4045 3.19459 10.4045 4.87249V5.76959H4.44446V4.87249ZM13.7033 6.59908L12.6605 16.3225C12.5475 17.3761 11.6797 18.1705 10.6419 18.1705H4.23076C3.19312 18.1705 2.32534 17.3764 2.21223 16.3232C1.89171 13.3395 1.33851 8.16276 1.17147 6.59908H3.6322V8.99424C3.6322 9.22326 3.81402 9.40899 4.03833 9.40899C4.26264 9.40899 4.44446 9.22326 4.44446 8.99424V6.59908H10.4045V8.99424C10.4045 9.22326 10.5863 9.40899 10.8106 9.40899C11.0349 9.40899 11.2167 9.22326 11.2167 8.99424V6.59908H13.7033Z" fill="currentColor" stroke="currentColor" stroke-width="0.2" stroke-linejoin="round"></path></symbol>
	<symbol id="Bars3" xmlns="http://www.w3.org/2000/svg" viewBox="0 0 20 20" stroke="currentColor" fill="none"><path fill-rule="evenodd" clip-rule="evenodd" d="M2.5 5.00033C2.5 4.54009 2.8731 4.16699 3.33333 4.16699H16.6667C17.1269 4.16699 17.5 4.54009 17.5 5.00033C17.5 5.46056 17.1269 5.83366 16.6667 5.83366H3.33333C2.8731 5.83366 2.5 5.46056 2.5 5.00033ZM2.5 10.0003C2.5 9.54009 2.8731 9.16699 3.33333 9.16699H16.6667C17.1269 9.16699 17.5 9.54009 17.5 10.0003C17.5 10.4606 17.1269 10.8337 16.6667 10.8337H3.33333C2.8731 10.8337 2.5 10.4606 2.5 10.0003ZM2.5 15.0003C2.5 14.5401 2.8731 14.167 3.33333 14.167H16.6667C17.1269 14.167 17.5 14.5401 17.5 15.0003C17.5 15.4606 17.1269 15.8337 16.6667 15.8337H3.33333C2.8731 15.8337 2.5 15.4606 2.5 15.0003Z" fill="currentColor"/></symbol>
	<symbol id="Heart" fill="none" xmlns="http://www.w3.org/2000/svg" stroke="currentColor" viewBox="2.25 3.75 19.5 16.5"><path d="M19.612 5.82611C19.1722 5.40569 18.65 5.07219 18.0752 4.84465C17.5005 4.61711 16.8844 4.5 16.2623 4.5C15.6401 4.5 15.0241 4.61711 14.4493 4.84465C13.8746 5.07219 13.3524 5.40569 12.9126 5.82611L11.9998 6.69821L11.087 5.82611C10.1986 4.9773 8.99364 4.50044 7.73725 4.50044C6.48085 4.50044 5.27591 4.9773 4.38751 5.82611C3.4991 6.67492 3 7.82616 3 9.02656C3 10.227 3.4991 11.3782 4.38751 12.227L11.9998 19.5L19.612 12.227C20.0521 11.8068 20.4011 11.3079 20.6393 10.7587C20.8774 10.2096 21 9.62097 21 9.02656C21 8.43214 20.8774 7.84355 20.6393 7.2944C20.4011 6.74526 20.0521 6.24633 19.612 5.82611Z" stroke="currentColor" stroke-width="1.5" stroke-linecap="round" stroke-linejoin="round"></path></symbol>
	<symbol id="Funnel" xmlns="http://www.w3.org/2000/svg" fill="none" viewBox="0 0.5 19 20"><path d="M10.345 12.893a.92.92 0 00-.25.63v3.956l-1.19.578v-4.535a.919.919 0 00-.25-.63L2.145 5.969a1.299 1.299 0 01-.11-.198h14.929a1.284 1.284 0 01-.111.198l-6.508 6.925zM3.264 2.366h12.472c.743 0 1.347.588 1.347 1.31v.976H1.917v-.976c0-.722.604-1.31 1.347-1.31zM15.736.5H3.264C1.464.5 0 1.925 0 3.676V5.24c0 .673.215 1.317.622 1.862a.917.917 0 00.068.08l6.298 6.701v5.683c0 .323.172.624.455.794a.98.98 0 00.933.04l3.106-1.51a.93.93 0 00.53-.835v-4.172l6.297-6.7a.87.87 0 00.068-.081A3.089 3.089 0 0019 5.24V3.676C19 1.925 17.536.5 15.736.5z" fill="#7A206C"></path></symbol>
	<symbol id="SortList" xmlns="http://www.w3.org/2000/svg" fill="none" viewBox="0 0.5 19 17.04"><path d="M4.397 15.263V.656H3.205v14.607L.843 12.9 0 13.743l3.8 3.8 3.802-3.8-.843-.843-2.362 2.363zM7.18.5v1.987H19V.5H7.18zM8.87 5.866H19V3.879H8.87v1.987zM10.56 9.246H19V7.259h-8.44v1.987zM12.25 12.626H19v-1.987h-6.75v1.987zM13.935 16.005H19V14.02h-5.065v1.986z" fill="#7A206C"></path></symbol>
	<symbol id="MagnifyingGlass" xmlns="http://www.w3.org/2000/svg" xmlns:xlink="http://www.w3.org/1999/xlink" viewBox="0 0 16 16" fill="none"><path d="M15.707 13.293L13 10.586C13.63 9.536 14 8.311 14 7C14 3.14 10.859 0 7 0C3.141 0 0 3.14 0 7C0 10.86 3.141 14 7 14C8.312 14 9.536 13.631 10.586 13L13.293 15.707C13.488 15.902 13.744 16 14 16C14.256 16 14.512 15.902 14.707 15.707L15.707 14.707C16.098 14.316 16.098 13.684 15.707 13.293ZM7 12C4.239 12 2 9.761 2 7C2 4.239 4.239 2 7 2C9.761 2 12 4.239 12 7C12 9.761 9.761 12 7 12Z" fill="currentColor"></path></symbol>
	<symbol id="XMark" xmlns="http://www.w3.org/2000/svg" fill="none" viewBox="0 0 24 24" stroke="currentColor"><path stroke-linecap="round" stroke-linejoin="round" d="M6 18L18 6M6 6l12 12" /></symbol>
	<symbol id="Plus" xmlns="http://www.w3.org/2000/svg" fill="none" viewBox="0 0 24 24" stroke="currentColor"><path stroke-linecap="round" stroke-linejoin="round" d="M12 4.5v15m7.5-7.5h-15" /></symbol>
	<symbol id="Minus" xmlns="http://www.w3.org/2000/svg" fill="none" viewBox="0 0 24 24" stroke="currentColor"><path stroke-linecap="round" stroke-linejoin="round" d="M19.5 12h-15" /></symbol>
	<symbol id="MapPin" xmlns="http://www.w3.org/2000/svg" fill="none" viewBox="0 0 24 24" stroke="currentColor"><path stroke-linecap="round" stroke-linejoin="round" d="M15 10.5a3 3 0 11-6 0 3 3 0 016 0z" /><path stroke-linecap="round" stroke-linejoin="round" d="M19.5 10.5c0 7.142-7.5 11.25-7.5 11.25S4.5 17.642 4.5 10.5a7.5 7.5 0 1115 0z" /></symbol>	
	<symbol id="Phone" xmlns="http://www.w3.org/2000/svg" fill="none" viewBox="0 0 24 24" stroke="currentColor"><path stroke-linecap="round" stroke-linejoin="round" d="M2.25 6.75c0 8.284 6.716 15 15 15h2.25a2.25 2.25 0 002.25-2.25v-1.372c0-.516-.351-.966-.852-1.091l-4.423-1.106c-.44-.11-.902.055-1.173.417l-.97 1.293c-.282.376-.769.542-1.21.38a12.035 12.035 0 01-7.143-7.143c-.162-.441.004-.928.38-1.21l1.293-.97c.363-.271.527-.734.417-1.173L6.963 3.102a1.125 1.125 0 00-1.091-.852H4.5A2.25 2.25 0 002.25 4.5v2.25z" /></symbol>
	<symbol id="Elo" xmlns="http://www.w3.org/2000/svg" viewBox="0 0 40 14" stroke="currentColor" fill="none"><path d="M6.57655 3.09309C6.98496 2.95495 7.4234 2.88288 7.87985 2.88288C9.87385 2.88288 11.5375 4.3003 11.9159 6.18018L14.7387 5.6036C14.0901 2.40841 11.2672 0 7.87985 0C7.10508 0 6.36033 0.126126 5.66364 0.36036L6.57655 3.09309Z" fill="currentColor"/><path d="M3.24323 12.2463L5.15314 10.0841C4.30029 9.32733 3.76576 8.22823 3.76576 6.997C3.76576 5.77178 4.30029 4.66667 5.15314 3.91592L3.24323 1.75977C1.79579 3.04505 0.882874 4.91292 0.882874 7.00301C0.882874 9.08709 1.79579 10.961 3.24323 12.2463Z" fill="currentColor"/><path d="M11.9159 7.82617C11.5315 9.70605 9.87387 11.1175 7.87988 11.1175C7.42342 11.1175 6.98498 11.0454 6.57057 10.9073L5.65765 13.64C6.35435 13.8742 7.1051 14.0003 7.87988 14.0003C11.2673 14.0003 14.0901 11.5979 14.7387 8.40275L11.9159 7.82617Z" fill="currentColor"/><path d="M24.1441 9.75962C23.6757 10.2161 23.045 10.4924 22.3484 10.4803C21.8679 10.4743 21.4234 10.3302 21.0511 10.0899L20.1141 11.5794C20.7568 11.9818 21.5075 12.2221 22.3243 12.2341C23.5075 12.2521 24.5886 11.7836 25.3754 11.0209L24.1441 9.75962ZM22.4505 3.68755C20.0961 3.65151 18.1502 5.5374 18.1141 7.89175C18.1021 8.77463 18.3544 9.60346 18.8048 10.2881L26.5405 6.97884C26.1081 5.12298 24.4505 3.72358 22.4505 3.68755ZM19.8859 8.22809C19.8739 8.13199 19.8679 8.02989 19.8679 7.92779C19.8919 6.5404 21.033 5.42929 22.4204 5.45331C23.1772 5.46532 23.8499 5.80767 24.3003 6.34821L19.8859 8.22809ZM28.973 1.76562V10.0119L30.4024 10.6065L29.7237 12.2341L28.3063 11.6455C27.988 11.5074 27.7718 11.2972 27.6096 11.0569C27.4535 10.8167 27.3333 10.4803 27.3333 10.0359V1.76562H28.973Z" fill="currentColor"/><path d="M34.1321 5.57925C34.3844 5.49516 34.6487 5.45312 34.9309 5.45312C36.1502 5.45312 37.1592 6.31798 37.3934 7.46513L39.1171 7.11078C38.7207 5.15882 36.997 3.69336 34.9309 3.69336C34.4565 3.69336 34 3.77144 33.5796 3.90958L34.1321 5.57925ZM32.0961 11.1588L33.2613 9.84351C32.7387 9.38105 32.4144 8.70837 32.4144 7.95762C32.4144 7.20687 32.7448 6.5342 33.2613 6.07774L32.0961 4.76243C31.2132 5.54321 30.6547 6.69036 30.6547 7.96363C30.6547 9.2369 31.2132 10.378 32.0961 11.1588ZM37.3934 8.46813C37.1592 9.61528 36.1442 10.4801 34.9309 10.4801C34.6547 10.4801 34.3844 10.4321 34.1321 10.348L33.5736 12.0177C34 12.1618 34.4565 12.2399 34.9309 12.2399C36.997 12.2399 38.7207 10.7744 39.1171 8.82249L37.3934 8.46813Z" fill="currentColor"/></symbol>
	<symbol id="Mastercard" xmlns="http://www.w3.org/2000/svg" viewBox="0 0 26 20" fill="none" stroke="currentColor"><g clip-path="url(#clip0_81_156)"><path d="M4.77191 19.9552V18.6263C4.77191 18.1167 4.46174 17.7846 3.95265 17.7846C3.68527 17.7846 3.39918 17.8734 3.19971 18.159C3.04463 17.9151 2.82538 17.7846 2.49116 17.7846C2.36689 17.7793 2.24323 17.8048 2.13124 17.8589C2.01926 17.913 1.92244 17.9941 1.84944 18.0948V17.8274H1.42859V19.9536H1.84944V18.737C1.84944 18.3627 2.07083 18.1836 2.381 18.1836C2.69116 18.1836 2.86816 18.383 2.86816 18.737V19.9552H3.28902V18.737C3.28902 18.3627 3.51041 18.1836 3.82057 18.1836C4.13073 18.1836 4.30773 18.383 4.30773 18.737V19.9552H4.77191ZM11.6821 17.8509H10.9067V17.2092H10.4869V17.8509H10.0441V18.2253H10.4869V19.2242C10.4869 19.7114 10.6639 19.9996 11.1954 19.9996C11.3968 19.9954 11.5941 19.9422 11.7703 19.8445L11.6371 19.4702C11.5177 19.5449 11.3791 19.5833 11.2382 19.5809C11.0168 19.5809 10.9061 19.4477 10.9061 19.2263V18.2082H11.6815V17.8536L11.6821 17.8509ZM15.6243 17.7846C15.5097 17.7821 15.3964 17.8093 15.2954 17.8637C15.1945 17.918 15.1093 17.9977 15.0484 18.0948V17.8274H14.6275V19.9536H15.0484V18.7595C15.0484 18.405 15.2254 18.1836 15.5136 18.1836C15.6109 18.1875 15.7074 18.2024 15.8013 18.2279L15.9345 17.829C15.8329 17.8034 15.729 17.7885 15.6243 17.7846ZM9.66656 18.006C9.44517 17.8509 9.13501 17.7846 8.80292 17.7846C8.27137 17.7846 7.93928 18.0285 7.93928 18.4493C7.93928 18.8039 8.18314 19.0028 8.64784 19.0697L8.86923 19.0916C9.11308 19.136 9.26816 19.2247 9.26816 19.3354C9.26816 19.4905 9.09116 19.6028 8.75854 19.6028C8.50456 19.608 8.2558 19.5303 8.04998 19.3814L7.82859 19.7135C8.13875 19.9349 8.51522 19.9809 8.73768 19.9809C9.358 19.9809 9.69009 19.6932 9.69009 19.2943C9.69009 18.9199 9.42271 18.7408 8.95907 18.6739L8.73768 18.652C8.53822 18.6301 8.36335 18.5632 8.36335 18.4306C8.36335 18.2755 8.54036 18.1632 8.78421 18.1632C9.05159 18.1632 9.31576 18.2739 9.44891 18.3402L9.66656 18.006ZM16.0896 18.8921C16.0896 19.5338 16.5104 19.9996 17.197 19.9996C17.5072 19.9996 17.7286 19.9333 17.95 19.7558L17.7286 19.4237C17.5718 19.5506 17.3768 19.6209 17.1751 19.6231C16.8008 19.6231 16.5104 19.3354 16.5104 18.9146C16.5104 18.4937 16.797 18.2082 17.1751 18.2082C17.3768 18.2104 17.5718 18.2807 17.7286 18.4076L17.95 18.0755C17.7286 17.8985 17.5072 17.8317 17.197 17.8317C16.5323 17.7873 16.0896 18.2525 16.0896 18.8948V18.8921ZM13.1216 17.7846C12.5013 17.7846 12.0805 18.2274 12.0805 18.8921C12.0805 19.5568 12.5232 19.9996 13.1655 19.9996C13.4779 20.0062 13.7831 19.9046 14.0291 19.7119L13.8077 19.4017C13.6298 19.5396 13.4125 19.6172 13.1874 19.6231C12.8997 19.6231 12.5896 19.4461 12.5457 19.0697H14.1184V18.8927C14.1184 18.2279 13.7195 17.7852 13.1216 17.7852V17.7846ZM13.0997 18.1836C13.4099 18.1836 13.6313 18.383 13.6532 18.7151H12.5019C12.5682 18.405 12.7692 18.1836 13.0997 18.1836ZM7.36335 18.8921V17.829H6.94249V18.0964C6.78741 17.8969 6.56816 17.7862 6.25586 17.7862C5.658 17.7862 5.21469 18.2515 5.21469 18.8937C5.21469 19.536 5.65747 20.0012 6.25586 20.0012C6.56602 20.0012 6.78741 19.8905 6.94249 19.691V19.9584H7.36335V18.8921ZM5.658 18.8921C5.658 18.4932 5.90185 18.1836 6.32271 18.1836C6.72164 18.1836 6.96442 18.4937 6.96442 18.8921C6.96442 19.313 6.69704 19.6007 6.32271 19.6007C5.90185 19.6226 5.658 19.2905 5.658 18.8921ZM22.0259 17.7846C21.9113 17.7821 21.798 17.8093 21.697 17.8637C21.5961 17.918 21.5109 17.9977 21.45 18.0948V17.8274H21.0291V19.9536H21.4495V18.7595C21.4495 18.405 21.6265 18.1836 21.9147 18.1836C22.012 18.1875 22.1085 18.2024 22.2024 18.2279L22.3355 17.829C22.234 17.8034 22.13 17.7885 22.0254 17.7846H22.0259ZM20.3869 18.8921V17.829H19.966V18.0964C19.8109 17.8969 19.5917 17.7862 19.2794 17.7862C18.6815 17.7862 18.2382 18.2515 18.2382 18.8937C18.2382 19.536 18.681 20.0012 19.2794 20.0012C19.5896 20.0012 19.8109 19.8905 19.966 19.691V19.9584H20.3869V18.8921ZM18.6815 18.8921C18.6815 18.4932 18.9254 18.1836 19.3462 18.1836C19.7452 18.1836 19.988 18.4937 19.988 18.8921C19.988 19.313 19.7206 19.6007 19.3462 19.6007C18.9254 19.6226 18.6815 19.2905 18.6815 18.8921ZM24.6618 18.8921V16.9873H24.2409V18.0948C24.0858 17.8953 23.8666 17.7846 23.5543 17.7846C22.9564 17.7846 22.5131 18.2499 22.5131 18.8921C22.5131 19.5344 22.9559 19.9996 23.5543 19.9996C23.8644 19.9996 24.0858 19.8889 24.2409 19.6894V19.9568H24.6618V18.8921ZM22.9564 18.8921C22.9564 18.4932 23.2003 18.1836 23.6211 18.1836C24.02 18.1836 24.2628 18.4937 24.2628 18.8921C24.2628 19.313 23.9954 19.6007 23.6211 19.6007C23.1997 19.6231 22.9559 19.291 22.9559 18.8921H22.9564Z" fill="currentColor"/><path d="M9.95478 7.97327C9.95505 6.76731 10.2281 5.57704 10.7536 4.49159C11.279 3.40613 12.0433 2.45361 12.989 1.70535C11.8128 0.780601 10.4002 0.205442 8.9126 0.045623C7.42499 -0.114196 5.92242 0.147775 4.57667 0.801588C3.23091 1.4554 2.09627 2.47468 1.30244 3.74289C0.508619 5.01111 0.0876465 6.47709 0.0876465 7.97327C0.0876465 9.46944 0.508619 10.9354 1.30244 12.2036C2.09627 13.4719 3.23091 14.4911 4.57667 15.1449C5.92242 15.7988 7.42499 16.0607 8.9126 15.9009C10.4002 15.7411 11.8128 15.1659 12.989 14.2412C12.0433 13.4929 11.279 12.5404 10.7536 11.4549C10.2281 10.3695 9.95505 9.17922 9.95478 7.97327Z" fill="currentColor"/><path d="M25.9019 7.97297C25.9029 9.46805 25.4832 10.9333 24.6907 12.201C23.8982 13.4688 22.7648 14.4879 21.4203 15.1418C20.0758 15.7957 18.5744 16.0579 17.0879 15.8986C15.6013 15.7393 14.1896 15.1648 13.0142 14.2409C13.9601 13.4928 14.7245 12.5403 15.25 11.4548C15.7755 10.3693 16.0485 9.17898 16.0485 7.97297C16.0485 6.76696 15.7755 5.5766 15.25 4.4911C14.7245 3.4056 13.9601 2.45312 13.0142 1.70506C14.1896 0.781104 15.6013 0.20662 17.0879 0.0473072C18.5744 -0.112005 20.0758 0.150287 21.4203 0.804186C22.7648 1.45808 23.8982 2.47719 24.6907 3.74493C25.4832 5.01268 25.9029 6.47789 25.9019 7.97297Z" fill="currentColor" fill-opacity="0.4"/><path fill-rule="evenodd" clip-rule="evenodd" d="M13.0141 1.70508H12.989C12.0432 2.45333 11.279 3.40585 10.7536 4.49131C10.2281 5.57677 9.95504 6.76704 9.95477 7.97299C9.95504 9.17894 10.2281 10.3692 10.7536 11.4547C11.279 12.5401 12.0433 13.4926 12.989 14.2409H13.0141C13.0141 14.2409 13.0141 14.2409 13.0141 14.2409C13.9601 13.4928 14.7245 12.5404 15.25 11.4549C15.7755 10.3694 16.0484 9.17899 16.0484 7.97299C16.0484 6.76698 15.7755 5.57661 15.25 4.49111C14.7245 3.40561 13.9601 2.45314 13.0141 1.70508Z" fill="currentColor" fill-opacity="0.6"/></g><defs><clipPath id="clip0_81_156"><rect width="25.8027" height="20" fill="white" transform="translate(0.0986328)"/></clipPath></defs></symbol>
	<symbol id="Visa" xmlns="http://www.w3.org/2000/svg" viewBox="0 0 40 12" fill="none" stroke="currentColor"><path d="M14.2514 11.8628L16.2325 0.237305H19.4012L17.4187 11.8628H14.2514Z" fill="currentColor"/><path d="M28.8667 0.488266C28.2389 0.252744 27.2552 0 26.0267 0C22.8956 0 20.6902 1.57674 20.6714 3.83653C20.6537 5.50698 22.2459 6.43886 23.4479 6.99494C24.6813 7.56486 25.0959 7.92824 25.09 8.437C25.0821 9.21631 24.105 9.57221 23.1942 9.57221C21.926 9.57221 21.2522 9.39601 20.2115 8.96208L19.8031 8.77728L19.3585 11.3797C20.0986 11.7043 21.4671 11.9854 22.8882 12C26.2191 12 28.3815 10.4413 28.4061 8.02807C28.4179 6.70556 27.5737 5.69921 25.7455 4.86948C24.638 4.33169 23.9597 3.97282 23.9669 3.42826C23.9669 2.94504 24.541 2.42833 25.7816 2.42833C26.8177 2.41223 27.5684 2.6382 28.1533 2.87372L28.4372 3.00787L28.8667 0.488266Z" fill="currentColor"/><path d="M37.0208 0.237305H34.5723C33.8138 0.237305 33.2461 0.444322 32.913 1.20137L28.2071 11.8552H31.5345C31.5345 11.8552 32.0785 10.4228 32.2015 10.1082C32.5651 10.1082 35.7976 10.1132 36.2597 10.1132C36.3545 10.5202 36.6452 11.8552 36.6452 11.8552H39.5855L37.0208 0.237305ZM33.136 7.74409C33.3981 7.07428 34.3985 4.49428 34.3985 4.49428C34.3798 4.52522 34.6587 3.82121 34.8186 3.38473L35.0328 4.38703C35.0328 4.38703 35.6395 7.16205 35.7663 7.74391H33.136V7.74409Z" fill="currentColor"/><path d="M0.45503 0.237305L0.414551 0.479138C1.66716 0.782359 2.78593 1.22123 3.76542 1.76717L6.57706 11.8441L9.92966 11.8404L14.9183 0.237305H11.5615L8.45929 8.16502L8.12885 6.55384C8.11337 6.50406 8.09654 6.4542 8.07932 6.40422L7.00087 1.21879C6.80912 0.482646 6.25282 0.262959 5.56461 0.237305H0.45503Z" fill="currentColor"/></symbol>		
	<symbol id="Pix" viewBox="0 0 512 512" xmlns="http://www.w3.org/2000/svg" fill="none" stroke="currentColor"> <defs/> <g fill="currentColor" fill-rule="evenodd"> <path d="M393.072 391.897c-20.082 0-38.969-7.81-53.176-22.02l-77.069-77.067c-5.375-5.375-14.773-5.395-20.17 0l-76.784 76.786c-14.209 14.207-33.095 22.019-53.179 22.019h-9.247l97.521 97.52c30.375 30.375 79.614 30.375 109.988 0l97.239-97.238h-15.123zm-105.049 74.327c-8.55 8.53-19.93 13.25-32.05 13.25h-.02c-12.12 0-23.522-4.721-32.05-13.25l-56.855-56.855c7.875-4.613 15.165-10.248 21.758-16.84l63.948-63.948 64.23 64.23c7.637 7.66 16.188 14.013 25.478 18.952l-54.439 54.46zM310.958 22.78c-30.374-30.374-79.613-30.374-109.988 0l-97.52 97.52h9.247c20.082 0 38.97 7.834 53.178 22.02l76.784 76.785c5.57 5.592 14.622 5.57 20.17 0l77.069-77.068c14.207-14.187 33.094-22.02 53.176-22.02h15.123l-97.239-97.237zm6.028 96.346l-64.23 64.23-63.97-63.97c-6.593-6.592-13.86-12.206-21.736-16.818l56.853-56.877c17.69-17.645 46.476-17.668 64.121 0l54.44 54.461c-9.292 4.961-17.842 11.315-25.479 18.974h.001z"/> <path d="M489.149 200.97l-58.379-58.377h-37.706c-13.838 0-27.394 5.635-37.185 15.426l-77.068 77.069c-7.202 7.18-16.623 10.77-26.067 10.77-9.443 0-18.885-3.59-26.066-10.77l-76.785-76.785c-9.792-9.814-23.346-15.427-37.207-15.427h-31.81L22.78 200.97c-30.374 30.375-30.374 79.614 0 109.988l58.095 58.074 31.81.021c13.86 0 27.416-5.635 37.208-15.426l76.784-76.764c13.925-13.947 38.208-13.924 52.133-.02l77.068 77.066c9.791 9.792 23.346 15.405 37.185 15.405h37.706l58.379-58.356c30.374-30.374 30.374-79.613 0-109.988zm-362.19 129.724c-3.763 3.786-8.942 5.917-14.273 5.917H94.302l-48.59-48.564c-17.689-17.69-17.689-46.476 0-64.143L94.3 175.296h18.385c5.331 0 10.51 2.154 14.295 5.918l74.74 74.74-74.761 74.74zm339.257-42.647l-48.848 48.87h-24.305c-5.309 0-10.508-2.155-14.251-5.92l-75.023-75.043 75.023-75.023c3.743-3.764 8.942-5.918 14.252-5.918h24.304l48.847 48.891c8.573 8.551 13.273 19.93 13.273 32.05 0 12.141-4.7 23.52-13.273 32.093z"/> </g> </symbol>
	<symbol id="Facebook" xmlns="http://www.w3.org/2000/svg" viewBox="0 0 24 24" stroke="currentColor" fill="none" stroke-linecap="round" stroke-linejoin="round"><path stroke="none" d="M0 0h24v24H0z" fill="none" /><path d="M7 10v4h3v7h4v-7h3l1 -4h-4v-2a1 1 0 0 1 1 -1h3v-4h-3a5 5 0 0 0 -5 5v2h-3" /></symbol>
	<symbol id="Instagram" xmlns="http://www.w3.org/2000/svg" viewBox="0 0 24 24" stroke="currentColor" fill="none" stroke-linecap="round" stroke-linejoin="round"><path stroke="none" d="M0 0h24v24H0z" fill="none" /><rect x="4" y="4" width="16" height="16" rx="4" /><circle cx="12" cy="12" r="3" /><line x1="16.5" y1="7.5" x2="16.5" y2="7.501" /></symbol>
	<symbol id="Tiktok" xmlns="http://www.w3.org/2000/svg" viewBox="0 0 24 24" stroke="currentColor" fill="none" stroke-linecap="round" stroke-linejoin="round"><path stroke="none" d="M0 0h24v24H0z" fill="none" /><path d="M9 12a4 4 0 1 0 4 4v-12a5 5 0 0 0 5 5" /></symbol>
	<symbol id="Truck" xmlns="http://www.w3.org/2000/svg"  viewBox="0 0 36 28" stroke="currentColor" fill="none"><path d="M14 22.333C14 24.174 12.5077 25.6663 10.6667 25.6663C8.82576 25.6663 7.33337 24.174 7.33337 22.333M14 22.333C14 20.4921 12.5077 18.9997 10.6667 18.9997C8.82576 18.9997 7.33337 20.4921 7.33337 22.333M14 22.333H24M7.33337 22.333H4.00004V15.6663M30.6667 22.333C30.6667 24.174 29.1743 25.6663 27.3334 25.6663C25.4924 25.6663 24 24.174 24 22.333M30.6667 22.333C30.6667 20.4921 29.1743 18.9997 27.3334 18.9997C25.4924 18.9997 24 20.4921 24 22.333M30.6667 22.333H34V12.333M2.33337 2.33301H20.6667V22.333M34 12.333H20.6667M34 12.333L29 3.99967H20.6667M4.00004 8.99967H10.6667" stroke-linecap="round" stroke-linejoin="round"/></symbol>
	<symbol id="Discount" xmlns="http://www.w3.org/2000/svg" viewBox="0 0 34 34" stroke="currentColor" fill="none"><path d="M12 21.9998L22 11.9998M13.6667 12.8332C13.6667 13.2934 13.2936 13.6665 12.8333 13.6665C12.3731 13.6665 12 13.2934 12 12.8332C12 12.3729 12.3731 11.9998 12.8333 11.9998C13.2936 11.9998 13.6667 12.3729 13.6667 12.8332ZM22 21.1665C22 21.6267 21.6269 21.9998 21.1667 21.9998C20.7064 21.9998 20.3333 21.6267 20.3333 21.1665C20.3333 20.7063 20.7064 20.3332 21.1667 20.3332C21.6269 20.3332 22 20.7063 22 21.1665ZM5.33334 8.99979C5.33334 8.02733 5.71965 7.0947 6.40728 6.40707C7.09491 5.71943 8.02755 5.33313 9.00001 5.33313H10.6667C11.6348 5.33257 12.5635 4.94913 13.25 4.26646L14.4167 3.09979C14.7574 2.75713 15.1625 2.4852 15.6087 2.29964C16.0549 2.11408 16.5334 2.01855 17.0167 2.01855C17.4999 2.01855 17.9784 2.11408 18.4246 2.29964C18.8708 2.4852 19.2759 2.75713 19.6167 3.09979L20.7833 4.26646C21.4699 4.94913 22.3985 5.33257 23.3667 5.33313H25.0333C26.0058 5.33313 26.9384 5.71943 27.6261 6.40707C28.3137 7.0947 28.7 8.02733 28.7 8.99979V10.6665C28.7006 11.6346 29.084 12.5633 29.7667 13.2498L30.9333 14.4165C31.276 14.7572 31.5479 15.1623 31.7335 15.6085C31.9191 16.0547 32.0146 16.5332 32.0146 17.0165C32.0146 17.4997 31.9191 17.9782 31.7335 18.4244C31.5479 18.8706 31.276 19.2757 30.9333 19.6165L29.7667 20.7831C29.084 21.4696 28.7006 22.3983 28.7 23.3665V25.0331C28.7 26.0056 28.3137 26.9382 27.6261 27.6259C26.9384 28.3135 26.0058 28.6998 25.0333 28.6998H23.3667C22.3985 28.7003 21.4699 29.0838 20.7833 29.7665L19.6167 30.9331C19.2759 31.2758 18.8708 31.5477 18.4246 31.7333C17.9784 31.9188 17.4999 32.0144 17.0167 32.0144C16.5334 32.0144 16.0549 31.9188 15.6087 31.7333C15.1625 31.5477 14.7574 31.2758 14.4167 30.9331L13.25 29.7665C12.5635 29.0838 11.6348 28.7003 10.6667 28.6998H9.00001C8.02755 28.6998 7.09491 28.3135 6.40728 27.6259C5.71965 26.9382 5.33334 26.0056 5.33334 25.0331V23.3665C5.33279 22.3983 4.94934 21.4696 4.26667 20.7831L3.10001 19.6165C2.75734 19.2757 2.48541 18.8706 2.29985 18.4244C2.11429 17.9782 2.01877 17.4997 2.01877 17.0165C2.01877 16.5332 2.11429 16.0547 2.29985 15.6085C2.48541 15.1623 2.75734 14.7572 3.10001 14.4165L4.26667 13.2498C4.94934 12.5633 5.33279 11.6346 5.33334 10.6665V8.99979Z" stroke-linecap="round" stroke-linejoin="round"/></symbol>
	<symbol id="Return" xmlns="http://www.w3.org/2000/svg" viewBox="0 0 34 30" stroke="currentColor" fill="none"><path d="M32 6.66699H2M32 6.66699L27 11.667M32 6.66699L27 1.66699M7 28.3337L2 23.3337M2 23.3337L7 18.3337M2 23.3337H32" stroke-linecap="round" stroke-linejoin="round"/></symbol>			
	<symbol id="CreditCard" xmlns="http://www.w3.org/2000/svg" viewBox="0 0 34 28" stroke="currentColor" fill="none"><path d="M2 10.6663H32M8.66667 18.9997H8.68333M15.3333 18.9997H18.6667M7 2.33301H27C29.7614 2.33301 32 4.57158 32 7.33301V20.6663C32 23.4278 29.7614 25.6663 27 25.6663H7C4.23858 25.6663 2 23.4278 2 20.6663V7.33301C2 4.57158 4.23858 2.33301 7 2.33301Z" stroke-linecap="round" stroke-linejoin="round"/></symbol>		
	<symbol id="Deco" xmlns="http://www.w3.org/2000/svg" viewBox="0 0 58 20" stroke="currentColor" fill="none"><path d="M49.5359 16.9432C47.3666 16.9432 46.9948 14.8019 47.6797 12.7178C48.2221 11.0615 49.5066 9.31991 51.4201 9.31991C53.676 9.31991 53.9039 11.6038 53.247 13.6026C52.6753 15.3162 51.3908 16.9432 49.5359 16.9432ZM48.879 19.9973C52.6473 19.9973 56.0159 17.9133 57.3578 14.1449C58.7569 10.1767 57.1859 6.2085 52.0477 6.2085C47.9369 6.2085 44.7962 8.77758 43.5969 12.1755C42.2551 16.0011 43.7115 19.9973 48.879 19.9973ZM36.3747 19.9973C37.8591 19.9973 39.3729 19.6829 40.4282 19.2271C40.8 18.1998 40.828 17.2004 40.5428 16.201C39.8006 16.4862 38.7732 16.7727 37.7165 16.7727C34.861 16.7727 34.6051 14.6606 35.2048 12.8617C35.8617 10.9496 37.574 9.40786 40.287 9.40786C41.0012 9.40786 41.6861 9.52246 42.1138 9.77963C42.856 8.78025 43.2838 7.78086 43.3704 6.7535C42.7428 6.46834 41.6861 6.21117 40.3163 6.21117C35.863 6.21117 32.3505 8.80956 31.0953 12.406C29.896 15.8039 30.8101 20 36.3774 20L36.3747 19.9973ZM21.0442 11.8037C21.8143 10.0901 23.0136 9.09206 24.5846 9.09206C25.9838 9.09206 26.2116 9.86225 25.9838 10.4619C25.6413 11.2894 24.47 11.8037 21.0442 11.8037ZM22.2714 19.9973C23.7278 19.9973 25.7826 19.7122 27.4962 18.8554C27.7813 17.9133 27.7534 16.9712 27.4389 15.9998C26.3542 16.5421 24.8405 16.8566 23.4707 16.8566C21.4439 16.8566 20.3299 16.1997 20.3592 14.5447C25.8972 14.6873 28.7807 13.6879 29.7228 11.2334C30.6649 8.7496 29.0379 6.2085 25.1829 6.2085C21.0721 6.2085 18.046 9.14935 16.932 12.3181C15.7621 15.6867 16.5043 19.9973 22.2701 19.9973H22.2714ZM5.72293 19.9973C9.52059 19.9973 11.6806 18.2557 14.1924 12.9177C15.5622 9.97684 16.7335 7.09329 18.0753 4.23905L19.6743 4.7534C20.1021 4.89598 20.3313 4.6388 20.1314 4.23905L18.1899 0.270827C18.0473 -0.0143302 17.7329 -0.0436454 17.533 0.0429678L12.708 1.86984C12.3082 2.01242 12.3362 2.38419 12.7359 2.49745L14.1631 2.95451C12.9931 5.6102 11.5367 9.60641 10.3654 12.1182C9.05155 14.9165 8.39595 16.8859 6.16933 16.8859C3.9427 16.8859 3.57093 15.1443 4.51301 12.6605C5.59768 9.77697 7.42455 8.92016 9.5086 9.51979C10.0802 8.72028 10.508 7.52103 10.6785 6.43636C10.0789 6.26447 9.36469 6.2085 8.76639 6.2085C5.3978 6.2085 2.05719 7.95009 0.687373 11.6038C-1.0822 16.3143 0.554122 19.9973 5.7216 19.9973H5.72293Z" fill="currentColor"/></symbol>
	<symbol id="Discord" xmlns="http://www.w3.org/2000/svg" viewBox="0 0 127.14 96.36" stroke="currentColor" fill="none"><g id="图层_2" data-name="图层 2"><g id="Discord_Logos" data-name="Discord Logos"><g id="Discord_Logo_-_Large_-_White" data-name="Discord Logo - Large - White"><path class="cls-1" d="M107.7,8.07A105.15,105.15,0,0,0,81.47,0a72.06,72.06,0,0,0-3.36,6.83A97.68,97.68,0,0,0,49,6.83,72.37,72.37,0,0,0,45.64,0,105.89,105.89,0,0,0,19.39,8.09C2.79,32.65-1.71,56.6.54,80.21h0A105.73,105.73,0,0,0,32.71,96.36,77.7,77.7,0,0,0,39.6,85.25a68.42,68.42,0,0,1-10.85-5.18c.91-.66,1.8-1.34,2.66-2a75.57,75.57,0,0,0,64.32,0c.87.71,1.76,1.39,2.66,2a68.68,68.68,0,0,1-10.87,5.19,77,77,0,0,0,6.89,11.1A105.25,105.25,0,0,0,126.6,80.22h0C129.24,52.84,122.09,29.11,107.7,8.07ZM42.45,65.69C36.18,65.69,31,60,31,53s5-12.74,11.43-12.74S54,46,53.89,53,48.84,65.69,42.45,65.69Zm42.24,0C78.41,65.69,73.25,60,73.25,53s5-12.74,11.44-12.74S96.23,46,96.12,53,91.08,65.69,84.69,65.69Z"/></g></g></g></symbol>
	<symbol id="FilterList" xmlns="http://www.w3.org/2000/svg" viewBox="0 0 16 16" fill="none"><path d="M6.66667 12H9.33333V10.6667H6.66667V12ZM2 4V5.33333H14V4H2ZM4 8.66667H12V7.33333H4V8.66667Z" fill="currentColor"/></symbol>
	<symbol id="ChevronUp" xmlns="http://www.w3.org/2000/svg" viewBox="0 0 16 16" stroke="currentColor" fill="none"><path fill-rule="evenodd" clip-rule="evenodd" d="M7.52851 5.52827C7.78886 5.26792 8.21097 5.26792 8.47132 5.52827L12.4713 9.52827C12.7317 9.78862 12.7317 10.2107 12.4713 10.4711C12.211 10.7314 11.7889 10.7314 11.5285 10.4711L7.99992 6.94248L4.47132 10.4711C4.21097 10.7314 3.78886 10.7314 3.52851 10.4711C3.26816 10.2107 3.26816 9.78862 3.52851 9.52827L7.52851 5.52827Z" fill="black"/></symbol>
	<symbol id="Triangle" xmlns="http://www.w3.org/2000/svg" viewBox="0 0 30 15" stroke="currentColor" fill="none"><polygon points="15,0 0,16 30,16" id="Triangle" style="fill:white;stroke:#eee;stroke-width:1" /></symbol>
	
	<symbol id="Trash" width="16" height="18" viewBox="0 0 16 18" fill="none" xmlns="http://www.w3.org/2000/svg">
  
  	<path id="GridDesk"  d='M.1 12V0h7v12zM9.1 12V0h7v12zM18.1 12V0h7v12zM.1 25V14h7v11zM9.1 25V14h7v11zM18.1 25V14h7v11z'/>
	<path id="GridDesk2" d='M0 0h5v7H0zM6.7 0h5v7h-5zM13.4 0h5v7h-5zM20.1 0h5v7h-5zM0 9h5v7H0zM6.7 9h5v7h-5zM13.4 9h5v7h-5zM20.1 9h5v7h-5zM0 18h5v7H0zM6.7 18h5v7h-5zM13.4 18h5v7h-5zM20.1 18h5v7h-5z'/>
 	<path id="GridMobile" d='M0 25V0h10.87v25zM14.13 25V0H25v25z'/>
	<path id="GridMobile2" d='M0 .5h24v24H0z'/>
	<path d="M2 4.47705H3.33333H14" stroke="currentColor" stroke-linecap="round" stroke-linejoin="round" />
	<path
    d="M5.33301 4.47714V2.98479C5.33301 2.58899 5.47348 2.2094 5.72353 1.92953C5.97358 1.64966 6.31272 1.49243 6.66634 1.49243H9.33301C9.68663 1.49243 10.0258 1.64966 10.2758 1.92953C10.5259 2.2094 10.6663 2.58899 10.6663 2.98479V4.47714M12.6663 4.47714V14.9236C12.6663 15.3194 12.5259 15.699 12.2758 15.9789C12.0258 16.2588 11.6866 16.416 11.333 16.416H4.66634C4.31272 16.416 3.97358 16.2588 3.72353 15.9789C3.47348 15.699 3.33301 15.3194 3.33301 14.9236V4.47714H12.6663Z"
    stroke="currentColor" stroke-linecap="round" stroke-linejoin="round" />
</symbol>

	<symbol id="WhatsApp"  xmlns="http://www.w3.org/2000/svg" viewBox="0 0 18 18" fill="none" ><path fill-rule="evenodd" clip-rule="evenodd" d="M13.333 3.94275C12.0977 2.88909 10.5203 2.32246 8.89688 2.34921C7.27345 2.37596 5.71558 2.99425 4.51564 4.08804C3.3157 5.18184 2.55617 6.67594 2.3796 8.28996C2.20302 9.90398 2.62153 11.527 3.5566 12.8543C3.72398 13.0919 3.75547 13.3996 3.63972 13.6661L2.88341 15.408L5.56246 14.9305C5.73665 14.8995 5.9162 14.9247 6.07512 15.0025C7.53336 15.7165 9.20204 15.8737 10.768 15.4448C12.334 15.0158 13.6896 14.0301 14.5804 12.6727C15.4712 11.3152 15.836 9.67933 15.6064 8.07201C15.3767 6.46468 14.5684 4.99641 13.333 3.94275ZM8.86942 0.682773C10.8987 0.649334 12.8704 1.35761 14.4146 2.67469C15.9588 3.99177 16.9692 5.8271 17.2563 7.83626C17.5433 9.84542 17.0873 11.8903 15.9738 13.5871C14.8603 15.2839 13.1658 16.516 11.2083 17.0522C9.34061 17.5638 7.35601 17.4083 5.59455 16.6177L1.64654 17.3213C1.34428 17.3752 1.03687 17.2585 0.846507 17.0176C0.656144 16.7767 0.613663 16.4506 0.735949 16.169L1.93091 13.417C0.947723 11.8367 0.519412 9.96793 0.722814 8.1087C0.943534 6.09118 1.89294 4.22355 3.39287 2.85631C4.8928 1.48907 6.84013 0.716212 8.86942 0.682773ZM6.03312 5.61685C6.26754 5.38243 6.58548 5.25073 6.917 5.25073C7.24852 5.25073 7.56646 5.38243 7.80088 5.61685C8.03531 5.85127 8.167 6.16921 8.167 6.50073V7.33407C8.167 7.66558 8.03531 7.98353 7.80088 8.21795C7.71659 8.30224 7.62149 8.37326 7.51885 8.42964C7.68255 8.89999 7.95113 9.33224 8.30998 9.69109C8.66883 10.0499 9.10107 10.3185 9.57143 10.4822C9.62781 10.3796 9.69882 10.2845 9.78312 10.2002C10.0175 9.96576 10.3355 9.83407 10.667 9.83407H11.5003C11.8319 9.83407 12.1498 9.96576 12.3842 10.2002C12.6186 10.4346 12.7503 10.7525 12.7503 11.0841C12.7503 11.4156 12.6186 11.7335 12.3842 11.9679C12.1498 12.2024 11.8319 12.3341 11.5003 12.3341H10.667C9.34092 12.3341 8.06915 11.8073 7.13147 10.8696C6.19378 9.93192 5.667 8.66015 5.667 7.33407V6.50073C5.667 6.16921 5.79869 5.85127 6.03312 5.61685Z" fill="currentColor"/></symbol>
	<symbol id="ArrowsPointingOut" xmlns="http://www.w3.org/2000/svg" fill="none" viewBox="0 0 24 24"><path stroke-linecap="round" stroke-linejoin="round" d="M3.75 3.75v4.5m0-4.5h4.5m-4.5 0L9 9M3.75 20.25v-4.5m0 4.5h4.5m-4.5 0L9 15M20.25 3.75h-4.5m4.5 0v4.5m0-4.5L15 9m5.25 11.25h-4.5m4.5 0v-4.5m0 4.5L15 15" /></symbol>
	<symbol id="CloseCircle" xmlns="http://www.w3.org/2000/svg" fill="none" viewBox="0 0 16 16">	<path d="M8 0C3.6 0 0 3.6 0 8C0 12.4 3.6 16 8 16C12.4 16 16 12.4 16 8C16 3.6 12.4 0 8 0ZM11.1464 9.74645C11.3417 9.94171 11.3417 10.2583 11.1464 10.4536L10.4536 11.1464C10.2583 11.3417 9.94171 11.3417 9.74645 11.1464L8 9.4L6.25355 11.1464C6.05829 11.3417 5.74171 11.3417 5.54645 11.1464L4.85355 10.4536C4.65829 10.2583 4.65829 9.94171 4.85355 9.74645L6.6 8L4.85355 6.25355C4.65829 6.05829 4.65829 5.74171 4.85355 5.54645L5.54645 4.85355C5.74171 4.65829 6.05829 4.65829 6.25355 4.85355L8 6.6L9.74645 4.85355C9.94171 4.65829 10.2583 4.65829 10.4536 4.85355L11.1464 5.54645C11.3417 5.74171 11.3417 6.05829 11.1464 6.25355L9.4 8L11.1464 9.74645Z" fill="currentColor"></path></symbol>

</svg>


